# xmcd CD database file
#
# Track frame offsets:
#	150
#	44647
#	95113
#	146515
#	169808
#	176612
#
# Disc length: 2573 seconds
#
# Revision: 0
# Processed by: cddbd v1.5.2PL0 Copyright (c) Steve Scherf et al.
# Submitted via: CDex 1.70beta2
#
DISCID=540a0b06
DTITLE=Billy Cobham - Reflected Journey
DYEAR=1992
DGENRE=Jazz
TTITLE0=Prime Time
TTITLE1=Key Jane
TTITLE2=Reflected Journey
TTITLE3=Crescent Sune
TTITLE4=Shabazz
TTITLE5=Improvisation
EXTD=YEAR: 1992
EXTT0=
EXTT1=
EXTT2=
EXTT3=
EXTT4=
EXTT5=
PLAYORDER=
